# xmcd
#
# Track frame offsets: 
#        150
#        1504
#        16139
#        35692
#        47328
#        65581
#        79539
#        94546
#        112641
#
# Disc length: 1770 seconds
#
# Revision: 0
# Processed by: cddbd v1.4PL0 Copyright (c) Steve Scherf et al.
# Submitted via: ExactAudioCopy v0.95a3
#
DISCID=5006e809
DTITLE=The Squatters - The Squatters
DYEAR=2002
DGENRE=Country/Noise/Punk
TTITLE0=Intro
TTITLE1=All Good Cafe
TTITLE2=Pacos Donkey
TTITLE3=9LB. Hammer
TTITLE4=Sixteen Caps
TTITLE5=Rhombus
TTITLE6=Takin' Candy
TTITLE7=Empty Bottles
TTITLE8=Mama Don't Let your Babies Grow Up To Be Cowboys
EXTD=
EXTT0=
EXTT1=
EXTT2=
EXTT3=
EXTT4=
EXTT5=
EXTT6=
EXTT7=
EXTT8=
PLAYORDER=
